# Vectary OBJ Export units=mm
mtllib Project Name.mtl
o 000_Pin
g Pin
usemtl Pin material_dadc9e67-3b3d-476d-84c9-5bc2a2271362
v -2.195 4.472 2.245
v -2.195 4.392 2.245
v -2.245 4.392 2.195
v -2.245 4.472 2.195
v -0.049 8.864 0.000
v 0.000 8.864 -0.049
v 0.049 8.864 0.000
v 0.000 8.864 0.049
v -2.245 4.472 -2.195
v -2.245 4.392 -2.195
v -2.195 4.392 -2.245
v -2.195 4.472 -2.245
v 2.195 4.472 2.245
v 2.245 4.472 2.195
v 2.245 4.392 2.195
v 2.195 4.392 2.245
v 2.195 4.392 -2.245
v 2.245 4.392 -2.195
v 2.245 4.472 -2.195
v 2.195 4.472 -2.245
v 0.000 0.000 -0.049
v -0.049 0.000 0.000
v 0.000 -0.000 0.049
v 0.049 0.000 0.000
vt 1.00000 0.00000
vt 1.00000 1.00000
vt 1.00000 1.00000
vt 0.00000 0.00000
vt 1.00000 0.00000
vt 1.00000 1.00000
vt 1.00000 1.00000
vt 0.00000 0.00000
vt 1.00000 0.00000
vt 1.00000 1.00000
vt 1.00000 1.00000
vt 0.00000 0.00000
vt 1.00000 0.00000
vt 1.00000 1.00000
vt 1.00000 1.00000
vt 0.00000 0.00000
vt 1.00000 0.00000
vt 1.00000 1.00000
vt 1.00000 1.00000
vt 0.00000 0.00000
vt 1.00000 0.00000
vt 1.00000 1.00000
vt 1.00000 1.00000
vt 0.00000 0.00000
vt 1.00000 0.00000
vt 1.00000 1.00000
vt 1.00000 1.00000
vt 0.00000 0.00000
vt 1.00000 0.00000
vt 1.00000 1.00000
vt 1.00000 1.00000
vt 0.00000 0.00000
vt 1.00000 0.00000
vt 1.00000 1.00000
vt 1.00000 1.00000
vt 0.00000 0.00000
vt 1.00000 0.00000
vt 1.00000 1.00000
vt 1.00000 1.00000
vt 0.00000 0.00000
vt 1.00000 0.00000
vt 1.00000 1.00000
vt 1.00000 1.00000
vt 0.00000 0.00000
vt 1.00000 0.00000
vt 1.00000 1.00000
vt 1.00000 1.00000
vt 0.00000 0.00000
vt 1.00000 0.00000
vt 1.00000 1.00000
vt 1.00000 1.00000
vt 0.00000 0.00000
vt 1.00000 0.00000
vt 1.00000 1.00000
vt 1.00000 1.00000
vt 0.00000 0.00000
vt 1.00000 0.00000
vt 1.00000 1.00000
vt 1.00000 1.00000
vt 0.00000 0.00000
vt 1.00000 0.00000
vt 1.00000 1.00000
vt 1.00000 1.00000
vt 0.00000 0.00000
vt 1.00000 0.00000
vt 1.00000 1.00000
vt 1.00000 1.00000
vt 0.00000 0.00000
vt 1.00000 0.00000
vt 1.00000 1.00000
vt 1.00000 1.00000
vt 0.00000 0.00000
vt 0.00000 0.00000
vt 1.00000 0.00000
vt 1.00000 1.00000
vt 0.00000 0.00000
vt 1.00000 0.00000
vt 1.00000 1.00000
vt 0.00000 0.00000
vt 1.00000 0.00000
vt 1.00000 1.00000
vt 0.00000 0.00000
vt 1.00000 0.00000
vt 1.00000 1.00000
vt 0.00000 0.00000
vt 1.00000 0.00000
vt 1.00000 1.00000
vt 0.00000 0.00000
vt 1.00000 0.00000
vt 1.00000 1.00000
vt 0.00000 0.00000
vt 1.00000 0.00000
vt 1.00000 1.00000
vt 0.00000 0.00000
vt 1.00000 0.00000
vt 1.00000 1.00000
vn -0.67388 -0.30295 0.67388
vn -0.67388 0.30295 0.67388
vn -0.67388 0.30295 0.67388
vn -0.67388 -0.30295 0.67388
vn 0.00000 1.00000 0.00000
vn 0.00000 1.00000 0.00000
vn 0.00000 1.00000 0.00000
vn 0.00000 1.00000 0.00000
vn -0.47117 0.37514 0.79829
vn -0.30607 0.54413 0.78118
vn -0.78118 0.54413 0.30607
vn -0.79829 0.37514 0.47117
vn -0.97318 -0.23004 -0.00000
vn -0.97318 -0.23004 -0.00000
vn -0.97318 0.23004 0.00000
vn -0.97318 0.23004 0.00000
vn -0.67388 -0.30295 -0.67388
vn -0.67388 0.30295 -0.67388
vn -0.67388 0.30295 -0.67388
vn -0.67388 -0.30295 -0.67388
vn -0.30607 0.54413 -0.78118
vn -0.47117 0.37514 -0.79829
vn -0.79829 0.37514 -0.47117
vn -0.78118 0.54413 -0.30607
vn 0.79829 0.37514 0.47117
vn 0.78118 0.54413 0.30607
vn 0.30607 0.54413 0.78118
vn 0.47117 0.37514 0.79829
vn 0.67388 0.30295 0.67388
vn 0.67388 0.30295 0.67388
vn 0.67388 -0.30295 0.67388
vn 0.67388 -0.30295 0.67388
vn 0.00000 -0.23004 0.97318
vn 0.00000 -0.23004 0.97318
vn 0.00000 0.23004 0.97318
vn 0.00000 0.23004 0.97318
vn 0.97318 -0.23004 -0.00000
vn 0.97318 -0.23004 -0.00000
vn 0.97318 0.23004 0.00000
vn 0.97318 0.23004 0.00000
vn 0.67388 -0.30295 -0.67388
vn 0.67388 -0.30295 -0.67388
vn 0.67388 0.30295 -0.67388
vn 0.67388 0.30295 -0.67388
vn 0.78118 0.54413 -0.30607
vn 0.79829 0.37514 -0.47117
vn 0.47117 0.37514 -0.79829
vn 0.30607 0.54413 -0.78118
vn 0.00000 -0.23004 -0.97318
vn 0.00000 -0.23004 -0.97318
vn 0.00000 0.23004 -0.97318
vn 0.00000 0.23004 -0.97318
vn -0.78118 -0.54413 -0.30607
vn -0.79829 -0.37514 -0.47117
vn -0.47117 -0.37514 -0.79829
vn -0.30607 -0.54413 -0.78118
vn -0.79829 -0.37514 0.47117
vn -0.78118 -0.54413 0.30607
vn -0.30607 -0.54413 0.78118
vn -0.47117 -0.37514 0.79829
vn 0.00000 -1.00000 -0.00000
vn 0.00000 -1.00000 -0.00000
vn 0.00000 -1.00000 -0.00000
vn 0.00000 -1.00000 -0.00000
vn 0.47117 -0.37514 0.79829
vn 0.30607 -0.54413 0.78118
vn 0.78118 -0.54413 0.30607
vn 0.79829 -0.37514 0.47117
vn 0.30607 -0.54413 -0.78118
vn 0.47117 -0.37514 -0.79829
vn 0.79829 -0.37514 -0.47117
vn 0.78118 -0.54413 -0.30607
vn -0.90309 0.37404 0.21102
vn -0.78784 0.61588 0.00000
vn -0.90309 0.37404 -0.21102
vn 0.00000 0.61588 0.78784
vn -0.21102 0.37404 0.90309
vn 0.21102 0.37404 0.90309
vn 0.21102 -0.37404 0.90309
vn -0.21102 -0.37404 0.90309
vn 0.00000 -0.61588 0.78784
vn -0.78784 -0.61588 -0.00000
vn -0.90309 -0.37404 0.21102
vn -0.90309 -0.37404 -0.21102
vn 0.21102 0.37404 -0.90309
vn -0.21102 0.37404 -0.90309
vn 0.00000 0.61588 -0.78784
vn 0.90309 0.37404 -0.21102
vn 0.78784 0.61588 0.00000
vn 0.90309 0.37404 0.21102
vn 0.00000 -0.61588 -0.78784
vn -0.21102 -0.37404 -0.90309
vn 0.21102 -0.37404 -0.90309
vn 0.78784 -0.61588 -0.00000
vn 0.90309 -0.37404 -0.21102
vn 0.90309 -0.37404 0.21102
f 1/2/2 4/3/3 3/4/4 2/1/1 
f 5/6/6 8/7/7 7/8/8 6/5/5 
f 8/10/10 5/11/11 4/12/12 1/9/9 
f 3/14/14 4/15/15 9/16/16 10/13/13 
f 9/18/18 12/19/19 11/20/20 10/17/17 
f 12/22/22 9/23/23 5/24/24 6/21/21 
f 7/26/26 8/27/27 13/28/28 14/25/25 
f 13/30/30 16/31/31 15/32/32 14/29/29 
f 16/34/34 13/35/35 1/36/36 2/33/33 
f 18/38/38 19/39/39 14/40/40 15/37/37 
f 17/42/42 20/43/43 19/44/44 18/41/41 
f 19/46/46 20/47/47 6/48/48 7/45/45 
f 11/50/50 12/51/51 20/52/52 17/49/49 
f 10/54/54 11/55/55 21/56/56 22/53/53 
f 22/58/58 23/59/59 2/60/60 3/57/57 
f 21/62/62 24/63/63 23/64/64 22/61/61 
f 23/66/66 24/67/67 15/68/68 16/65/65 
f 17/70/70 18/71/71 24/72/72 21/69/69 
f 4/73/73 5/74/74 9/75/75 
f 8/76/76 1/77/77 13/78/78 
f 16/79/79 2/80/80 23/81/81 
f 22/82/82 3/83/83 10/84/84 
f 20/85/85 12/86/86 6/87/87 
f 19/88/88 7/89/89 14/90/90 
f 21/91/91 11/92/92 17/93/93 
f 24/94/94 18/95/95 15/96/96 
